<svg xmlns="http://www.w3.org/2000/svg" xmlns:xlink="http://www.w3.org/1999/xlink" width="500" zoomAndPan="magnify" viewBox="0 0 375 374.999991" height="500" preserveAspectRatio="xMidYMid meet" version="1.0"><defs><clipPath id="f5cf7547be"><path d="M 55.777344 141.601562 L 208.777344 141.601562 L 208.777344 302.101562 L 55.777344 302.101562 Z M 55.777344 141.601562 " clip-rule="nonzero"/></clipPath><clipPath id="3ced0b618d"><path d="M 36.59375 44.605469 L 186.59375 44.605469 L 186.59375 194.605469 L 36.59375 194.605469 Z M 36.59375 44.605469 " clip-rule="nonzero"/></clipPath><clipPath id="5980babd4c"><path d="M 135 154 L 320 154 L 320 318 L 135 318 Z M 135 154 " clip-rule="nonzero"/></clipPath><clipPath id="36c53c3eab"><path d="M 122.957031 276.402344 L 285.519531 133.039062 L 358.441406 215.726562 L 195.878906 359.089844 Z M 122.957031 276.402344 " clip-rule="nonzero"/></clipPath><clipPath id="9aa86888ee"><path d="M 122.957031 276.402344 L 285.519531 133.039062 L 358.441406 215.726562 L 195.878906 359.089844 Z M 122.957031 276.402344 " clip-rule="nonzero"/></clipPath><clipPath id="a801984dc9"><path d="M 213 92 L 288.691406 92 L 288.691406 163 L 213 163 Z M 213 92 " clip-rule="nonzero"/></clipPath><clipPath id="3e1e4bbbb8"><path d="M 86.191406 92 L 162 92 L 162 163 L 86.191406 163 Z M 86.191406 92 " clip-rule="nonzero"/></clipPath><clipPath id="6a8b594fb7"><path d="M 172 19.019531 L 194 19.019531 L 194 41 L 172 41 Z M 172 19.019531 " clip-rule="nonzero"/></clipPath><clipPath id="c1fa4481d5"><path d="M 128 308 L 246 308 L 246 320.519531 L 128 320.519531 Z M 128 308 " clip-rule="nonzero"/></clipPath></defs><g clip-path="url(#f5cf7547be)"><path fill="#6366f1" d="M 136.058594 141.601562 C 158.988281 141.601562 175.664062 156.222656 188.929688 174.699219 C 198.765625 188.402344 208.402344 203.003906 208.402344 221.859375 C 208.402344 266.148438 175.992188 302.128906 136.058594 302.128906 C 96.125 302.128906 55.910156 263.644531 55.910156 219.351562 C 55.910156 175.058594 96.125 141.601562 136.058594 141.601562 Z M 136.058594 141.601562 " fill-opacity="1" fill-rule="evenodd"/></g><g clip-path="url(#3ced0b618d)"><path fill="#d9d9d9" d="M 185.859375 95.585938 C 186.0625 95.585938 186.234375 95.515625 186.378906 95.371094 C 186.523438 95.226562 186.59375 95.054688 186.59375 94.851562 C 186.59375 94.648438 186.523438 94.476562 186.378906 94.332031 C 186.234375 94.1875 186.0625 94.117188 185.859375 94.117188 L 161.839844 94.117188 L 161.839844 70.828125 L 185.859375 70.828125 C 186.0625 70.828125 186.234375 70.757812 186.378906 70.613281 C 186.523438 70.46875 186.59375 70.296875 186.59375 70.09375 C 186.59375 69.890625 186.523438 69.71875 186.378906 69.574219 C 186.234375 69.429688 186.0625 69.359375 185.859375 69.359375 L 161.839844 69.359375 L 161.839844 45.339844 C 161.839844 45.136719 161.769531 44.964844 161.625 44.820312 C 161.480469 44.675781 161.308594 44.605469 161.105469 44.605469 C 160.902344 44.605469 160.730469 44.675781 160.585938 44.820312 C 160.441406 44.964844 160.371094 45.136719 160.371094 45.339844 L 160.371094 69.359375 L 137.082031 69.359375 L 137.082031 45.339844 C 137.082031 45.136719 137.011719 44.964844 136.867188 44.820312 C 136.722656 44.675781 136.550781 44.605469 136.347656 44.605469 C 136.144531 44.605469 135.972656 44.675781 135.828125 44.820312 C 135.683594 44.964844 135.613281 45.136719 135.613281 45.339844 L 135.613281 69.359375 L 112.328125 69.359375 L 112.328125 45.339844 C 112.328125 45.136719 112.257812 44.964844 112.113281 44.820312 C 111.96875 44.675781 111.796875 44.605469 111.59375 44.605469 C 111.390625 44.605469 111.21875 44.675781 111.074219 44.820312 C 110.929688 44.964844 110.859375 45.136719 110.859375 45.339844 L 110.859375 69.359375 L 87.574219 69.359375 L 87.574219 45.339844 C 87.574219 45.136719 87.503906 44.964844 87.359375 44.820312 C 87.214844 44.675781 87.042969 44.605469 86.839844 44.605469 C 86.636719 44.605469 86.464844 44.675781 86.320312 44.820312 C 86.175781 44.964844 86.105469 45.136719 86.105469 45.339844 L 86.105469 69.359375 L 62.816406 69.359375 L 62.816406 45.339844 C 62.816406 45.136719 62.746094 44.964844 62.601562 44.820312 C 62.460938 44.675781 62.285156 44.605469 62.082031 44.605469 C 61.878906 44.605469 61.707031 44.675781 61.5625 44.820312 C 61.417969 44.964844 61.347656 45.136719 61.347656 45.339844 L 61.347656 69.359375 L 37.328125 69.359375 C 37.125 69.359375 36.953125 69.429688 36.808594 69.574219 C 36.664062 69.71875 36.59375 69.890625 36.59375 70.09375 C 36.59375 70.296875 36.664062 70.46875 36.808594 70.613281 C 36.953125 70.757812 37.125 70.828125 37.328125 70.828125 L 61.347656 70.828125 L 61.347656 94.117188 L 37.328125 94.117188 C 37.125 94.117188 36.953125 94.1875 36.808594 94.332031 C 36.664062 94.476562 36.59375 94.648438 36.59375 94.851562 C 36.59375 95.054688 36.664062 95.226562 36.808594 95.371094 C 36.953125 95.515625 37.125 95.585938 37.328125 95.585938 L 61.347656 95.585938 L 61.347656 118.871094 L 37.328125 118.871094 C 37.125 118.871094 36.953125 118.941406 36.808594 119.085938 C 36.664062 119.230469 36.59375 119.402344 36.59375 119.605469 C 36.59375 119.808594 36.664062 119.980469 36.808594 120.125 C 36.953125 120.269531 37.125 120.339844 37.328125 120.339844 L 61.347656 120.339844 L 61.347656 143.625 L 37.328125 143.625 C 37.125 143.625 36.953125 143.695312 36.808594 143.839844 C 36.664062 143.984375 36.59375 144.15625 36.59375 144.359375 C 36.59375 144.5625 36.664062 144.734375 36.808594 144.878906 C 36.953125 145.023438 37.125 145.09375 37.328125 145.09375 L 61.347656 145.09375 L 61.347656 168.382812 L 37.328125 168.382812 C 37.125 168.382812 36.953125 168.453125 36.808594 168.597656 C 36.664062 168.738281 36.59375 168.914062 36.59375 169.117188 C 36.59375 169.320312 36.664062 169.492188 36.808594 169.636719 C 36.953125 169.78125 37.125 169.851562 37.328125 169.851562 L 61.347656 169.851562 L 61.347656 193.871094 C 61.347656 194.074219 61.417969 194.246094 61.5625 194.390625 C 61.707031 194.535156 61.878906 194.605469 62.082031 194.605469 C 62.285156 194.605469 62.460938 194.535156 62.601562 194.390625 C 62.746094 194.246094 62.816406 194.074219 62.816406 193.871094 L 62.816406 169.851562 L 86.105469 169.851562 L 86.105469 193.871094 C 86.105469 194.074219 86.175781 194.246094 86.320312 194.390625 C 86.464844 194.535156 86.636719 194.605469 86.839844 194.605469 C 87.042969 194.605469 87.214844 194.535156 87.359375 194.390625 C 87.503906 194.246094 87.574219 194.074219 87.574219 193.871094 L 87.574219 169.851562 L 110.859375 169.851562 L 110.859375 193.871094 C 110.859375 194.074219 110.929688 194.246094 111.074219 194.390625 C 111.21875 194.535156 111.390625 194.605469 111.59375 194.605469 C 111.796875 194.605469 111.96875 194.535156 112.113281 194.390625 C 112.257812 194.246094 112.328125 194.074219 112.328125 193.871094 L 112.328125 169.851562 L 135.613281 169.851562 L 135.613281 193.871094 C 135.613281 194.074219 135.683594 194.246094 135.828125 194.390625 C 135.972656 194.535156 136.144531 194.605469 136.347656 194.605469 C 136.550781 194.605469 136.722656 194.535156 136.867188 194.390625 C 137.011719 194.246094 137.082031 194.074219 137.082031 193.871094 L 137.082031 169.851562 L 160.371094 169.851562 L 160.371094 193.871094 C 160.371094 194.074219 160.441406 194.246094 160.585938 194.390625 C 160.730469 194.535156 160.902344 194.605469 161.105469 194.605469 C 161.308594 194.605469 161.480469 194.535156 161.625 194.390625 C 161.769531 194.246094 161.839844 194.074219 161.839844 193.871094 L 161.839844 169.851562 L 185.859375 169.851562 C 186.0625 169.851562 186.234375 169.78125 186.378906 169.636719 C 186.523438 169.492188 186.59375 169.320312 186.59375 169.117188 C 186.59375 168.914062 186.523438 168.738281 186.378906 168.597656 C 186.234375 168.453125 186.0625 168.382812 185.859375 168.382812 L 161.839844 168.382812 L 161.839844 145.09375 L 185.859375 145.09375 C 186.0625 145.09375 186.234375 145.023438 186.378906 144.878906 C 186.523438 144.734375 186.59375 144.5625 186.59375 144.359375 C 186.59375 144.15625 186.523438 143.984375 186.378906 143.839844 C 186.234375 143.695312 186.0625 143.625 185.859375 143.625 L 161.839844 143.625 L 161.839844 120.339844 L 185.859375 120.339844 C 186.0625 120.339844 186.234375 120.269531 186.378906 120.125 C 186.523438 119.980469 186.59375 119.808594 186.59375 119.605469 C 186.59375 119.402344 186.523438 119.230469 186.378906 119.085938 C 186.234375 118.941406 186.0625 118.871094 185.859375 118.871094 L 161.839844 118.871094 L 161.839844 95.585938 Z M 160.371094 70.828125 L 160.371094 94.117188 L 137.082031 94.117188 L 137.082031 70.828125 Z M 135.613281 70.828125 L 135.613281 94.117188 L 112.328125 94.117188 L 112.328125 70.828125 Z M 110.859375 120.339844 L 110.859375 143.625 L 87.574219 143.625 L 87.574219 120.339844 Z M 87.574219 118.871094 L 87.574219 95.585938 L 110.859375 95.585938 L 110.859375 118.871094 Z M 112.328125 120.339844 L 135.613281 120.339844 L 135.613281 143.625 L 112.328125 143.625 Z M 112.328125 118.871094 L 112.328125 95.585938 L 135.613281 95.585938 L 135.613281 118.871094 Z M 110.859375 70.828125 L 110.859375 94.117188 L 87.574219 94.117188 L 87.574219 70.828125 Z M 62.816406 70.828125 L 86.105469 70.828125 L 86.105469 94.117188 L 62.816406 94.117188 Z M 62.816406 95.585938 L 86.105469 95.585938 L 86.105469 118.871094 L 62.816406 118.871094 Z M 62.816406 120.339844 L 86.105469 120.339844 L 86.105469 143.625 L 62.816406 143.625 Z M 62.816406 168.382812 L 62.816406 145.09375 L 86.105469 145.09375 L 86.105469 168.382812 Z M 87.574219 168.382812 L 87.574219 145.09375 L 110.859375 145.09375 L 110.859375 168.382812 Z M 112.328125 168.382812 L 112.328125 145.09375 L 135.613281 145.09375 L 135.613281 168.382812 Z M 160.371094 168.382812 L 137.082031 168.382812 L 137.082031 145.09375 L 160.371094 145.09375 Z M 160.371094 143.625 L 137.082031 143.625 L 137.082031 120.339844 L 160.371094 120.339844 Z M 160.371094 118.871094 L 137.082031 118.871094 L 137.082031 95.585938 L 160.371094 95.585938 Z M 160.371094 118.871094 " fill-opacity="1" fill-rule="nonzero"/></g><g clip-path="url(#5980babd4c)"><g clip-path="url(#36c53c3eab)"><g clip-path="url(#9aa86888ee)"><path fill="#4f46e5" d="M 135.941406 280.816406 C 135.394531 271.609375 140.207031 262.945312 148.65625 254.851562 C 157.457031 246.425781 168.265625 240.160156 179.6875 232.898438 C 189.203125 226.464844 199.363281 220.304688 204.332031 215.132812 C 205.441406 214.324219 206.574219 213.414062 207.757812 212.398438 C 214.667969 206.460938 222.753906 197.535156 232.507812 188.832031 C 244.976562 177.175781 257.242188 166.894531 269.714844 160.613281 C 281.992188 154.433594 293.339844 152.820312 302.480469 157.515625 C 311.484375 162.144531 317.125 172.363281 318.855469 186.210938 C 320.574219 199.953125 318.492188 218.222656 310.394531 238.59375 C 304.589844 254.207031 293.707031 272.253906 274.976562 288.855469 C 271.789062 291.683594 268.441406 294.40625 264.945312 297.003906 C 240.335938 313.589844 215.988281 318.644531 196.675781 317.824219 C 176.859375 317.066406 161.886719 311.609375 152.082031 304.992188 C 142.167969 298.304688 136.472656 289.808594 135.941406 280.816406 Z M 135.941406 280.816406 " fill-opacity="1" fill-rule="nonzero"/></g></g></g><g clip-path="url(#a801984dc9)"><path fill="#ffb401" d="M 246.601562 162.71875 L 213.425781 162.71875 L 213.425781 155.609375 L 246.601562 155.609375 C 259.125 155.609375 270.085938 147.113281 273.21875 135.003906 L 280.804688 105.480469 C 281.164062 104.03125 280.863281 102.527344 279.960938 101.320312 C 279.058594 100.117188 277.671875 99.453125 276.167969 99.453125 L 236.066406 99.453125 L 236.066406 92.34375 L 276.167969 92.34375 C 279.902344 92.34375 283.332031 94.03125 285.621094 96.984375 C 287.910156 99.933594 288.691406 103.671875 287.730469 107.285156 L 280.140625 136.808594 C 276.167969 152.054688 262.378906 162.71875 246.601562 162.71875 Z M 246.601562 162.71875 " fill-opacity="1" fill-rule="nonzero"/></g><g clip-path="url(#3e1e4bbbb8)"><path fill="#ffb401" d="M 161.339844 162.71875 L 128.160156 162.71875 C 112.386719 162.71875 98.597656 152.054688 94.683594 136.75 L 87.09375 107.226562 C 86.191406 103.609375 86.914062 99.875 89.203125 96.921875 C 91.492188 93.96875 94.921875 92.285156 98.65625 92.285156 L 138.757812 92.285156 L 138.757812 99.394531 L 98.65625 99.394531 C 97.152344 99.394531 95.765625 100.054688 94.863281 101.261719 C 93.960938 102.464844 93.597656 103.972656 94.019531 105.417969 L 101.605469 134.941406 C 104.738281 147.113281 115.695312 155.546875 128.222656 155.546875 L 161.398438 155.546875 L 161.398438 162.71875 Z M 161.339844 162.71875 " fill-opacity="1" fill-rule="nonzero"/></g><path fill="#ffb401" d="M 187.410156 203.628906 L 179.464844 203.628906 C 182.535156 198.929688 179.824219 191.15625 174.648438 185.914062 L 187.351562 185.914062 L 187.351562 203.628906 Z M 187.410156 203.628906 " fill-opacity="1" fill-rule="nonzero"/><path fill="#ffb401" d="M 187.410156 203.628906 L 195.359375 203.628906 C 192.289062 198.929688 195 191.15625 200.175781 185.914062 L 187.472656 185.914062 L 187.472656 203.628906 Z M 187.410156 203.628906 " fill-opacity="1" fill-rule="nonzero"/><path fill="#ffb401" d="M 187.410156 203.628906 L 179.464844 203.628906 C 182.535156 208.328125 179.824219 216.101562 174.648438 221.34375 L 187.351562 221.34375 L 187.351562 203.628906 Z M 187.410156 203.628906 " fill-opacity="1" fill-rule="nonzero"/><path fill="#ffb401" d="M 187.410156 203.628906 L 195.359375 203.628906 C 192.289062 208.328125 195 216.101562 200.175781 221.34375 L 187.472656 221.34375 L 187.472656 203.628906 Z M 187.410156 203.628906 " fill-opacity="1" fill-rule="nonzero"/><path fill="#ffb401" d="M 174.648438 221.40625 L 200.058594 221.40625 L 200.058594 239.359375 L 174.648438 239.359375 Z M 174.648438 221.40625 " fill-opacity="1" fill-rule="nonzero"/><path fill="#fec701" d="M 191.929688 203.628906 C 189.820312 198.929688 191.6875 191.15625 195.179688 185.914062 L 177.839844 185.914062 C 181.332031 191.21875 183.195312 198.992188 181.089844 203.628906 C 183.195312 208.328125 181.332031 216.101562 177.839844 221.34375 L 177.839844 239.300781 L 195.238281 239.300781 L 195.238281 221.34375 C 191.6875 216.101562 189.820312 208.328125 191.929688 203.628906 Z M 191.929688 203.628906 " fill-opacity="1" fill-rule="nonzero"/><path fill="#ffb401" d="M 223.238281 257.917969 L 151.585938 257.917969 C 150.378906 257.917969 149.597656 256.53125 150.261719 255.507812 L 153.570312 250.445312 C 158.507812 242.855469 165.914062 237.191406 174.464844 234.296875 C 182.835938 231.464844 191.929688 231.464844 200.359375 234.296875 C 208.910156 237.191406 216.316406 242.914062 221.253906 250.445312 L 224.5625 255.507812 C 225.167969 256.59375 224.445312 257.917969 223.238281 257.917969 Z M 223.238281 257.917969 " fill-opacity="1" fill-rule="nonzero"/><path fill="#fec701" d="M 215.59375 256.472656 L 157.546875 256.472656 C 156.523438 256.472656 155.921875 255.144531 156.523438 254.121094 L 159.171875 249.242188 C 163.207031 241.890625 169.167969 236.347656 176.089844 233.574219 C 182.894531 230.804688 190.242188 230.804688 197.046875 233.574219 C 203.972656 236.40625 209.933594 241.890625 213.964844 249.242188 L 216.617188 254.121094 C 217.21875 255.144531 216.617188 256.472656 215.59375 256.472656 Z M 215.59375 256.472656 " fill-opacity="1" fill-rule="nonzero"/><path fill="#fed201" d="M 187.230469 231.648438 C 170.371094 235.925781 163.328125 254.121094 163.328125 254.121094 C 162.84375 255.144531 163.386719 256.472656 164.230469 256.472656 L 175.066406 256.472656 C 174.105469 256.472656 171.875 244.058594 187.230469 231.648438 Z M 187.230469 231.648438 " fill-opacity="1" fill-rule="nonzero"/><path fill="#fed201" d="M 186.027344 203.628906 C 185.546875 198.929688 185.964844 191.15625 186.75 185.914062 L 182.777344 185.914062 C 183.558594 191.21875 183.980469 198.992188 183.496094 203.628906 C 183.980469 208.328125 183.558594 216.101562 182.777344 221.34375 L 182.777344 233.816406 L 186.6875 231.886719 L 186.6875 221.34375 C 185.96875 216.101562 185.546875 208.328125 186.027344 203.628906 Z M 186.027344 203.628906 " fill-opacity="1" fill-rule="nonzero"/><path fill="#ffb401" d="M 174.648438 185.914062 C 177.597656 188.929688 179.765625 192.84375 180.425781 196.460938 C 181.933594 196.820312 183.378906 197.121094 184.703125 197.363281 L 190 197.363281 C 191.386719 197.183594 192.832031 196.882812 194.277344 196.460938 C 195 192.84375 197.105469 188.988281 200.058594 185.914062 Z M 174.648438 185.914062 " fill-opacity="1" fill-rule="nonzero"/><path fill="#fec701" d="M 250.9375 74.269531 C 250.394531 69.449219 246.363281 65.773438 241.542969 65.773438 L 133.28125 65.773438 C 128.460938 65.773438 124.429688 69.449219 123.886719 74.269531 C 114.972656 153.800781 160.554688 185.675781 184.824219 189.230469 L 190.121094 189.230469 C 214.265625 185.675781 259.910156 153.800781 250.9375 74.269531 Z M 250.9375 74.269531 " fill-opacity="1" fill-rule="nonzero"/><path fill="#fed201" d="M 234.257812 74.269531 C 233.835938 69.449219 230.523438 65.773438 226.492188 65.773438 L 137.496094 65.773438 C 133.519531 65.773438 130.207031 69.449219 129.726562 74.269531 C 122.378906 153.800781 159.832031 185.675781 179.824219 189.230469 L 184.160156 189.230469 C 204.089844 185.675781 241.605469 153.800781 234.257812 74.269531 Z M 234.257812 74.269531 " fill-opacity="1" fill-rule="nonzero"/><path fill="#fee676" d="M 162.785156 73.363281 C 163.085938 69.085938 165.554688 65.832031 168.503906 65.832031 L 144.902344 65.832031 C 141.949219 65.832031 139.542969 69.085938 139.179688 73.363281 C 134.726562 131.75 152.667969 161.332031 167.300781 171.695312 C 170.3125 173.804688 174.34375 170.972656 173.261719 167.417969 C 168.503906 151.632812 159.472656 122.347656 162.785156 73.363281 Z M 162.785156 73.363281 " fill-opacity="1" fill-rule="nonzero"/><path fill="#fec701" d="M 244.433594 65.773438 L 130.269531 65.773438 C 125.152344 65.773438 120.9375 69.628906 120.332031 74.691406 C 120.152344 76.195312 120.03125 77.640625 119.910156 79.089844 C 119.730469 80.894531 121.175781 82.460938 123.042969 82.460938 L 251.660156 82.460938 C 253.46875 82.460938 254.910156 80.894531 254.792969 79.089844 C 254.671875 77.640625 254.492188 76.195312 254.371094 74.691406 C 253.769531 69.6875 249.554688 65.773438 244.433594 65.773438 Z M 244.433594 65.773438 " fill-opacity="1" fill-rule="nonzero"/><path fill="#fed201" d="M 223 65.773438 L 132.074219 65.773438 C 127.980469 65.773438 124.609375 69.628906 124.1875 74.691406 C 124.066406 76.195312 123.945312 77.640625 123.824219 79.089844 C 123.707031 80.894531 124.847656 82.460938 126.292969 82.460938 L 228.777344 82.460938 C 230.222656 82.460938 231.367188 80.894531 231.246094 79.089844 C 231.128906 77.640625 231.007812 76.195312 230.886719 74.691406 C 230.40625 69.6875 227.03125 65.773438 223 65.773438 Z M 223 65.773438 " fill-opacity="1" fill-rule="nonzero"/><path fill="#fee676" d="M 135.507812 73.363281 C 135.265625 76.496094 135.085938 79.511719 134.964844 82.523438 L 158.628906 82.523438 C 158.75 79.570312 158.929688 76.496094 159.109375 73.363281 C 159.414062 69.085938 161.882812 65.832031 164.832031 65.832031 L 141.226562 65.832031 C 138.277344 65.773438 135.808594 69.085938 135.507812 73.363281 Z M 135.507812 73.363281 " fill-opacity="1" fill-rule="nonzero"/><path fill="#ffb401" d="M 122.863281 86.679688 L 251.902344 86.679688 C 251.839844 85.171875 251.78125 83.667969 251.660156 82.101562 L 123.101562 82.101562 C 122.984375 83.605469 122.921875 85.171875 122.863281 86.679688 Z M 122.863281 86.679688 " fill-opacity="1" fill-rule="nonzero"/><path fill="#ffb401" d="M 215.109375 127.472656 C 215.109375 128.378906 215.066406 129.285156 214.976562 130.1875 C 214.886719 131.089844 214.753906 131.988281 214.578125 132.878906 C 214.402344 133.769531 214.179688 134.648438 213.917969 135.515625 C 213.65625 136.386719 213.347656 137.238281 213.003906 138.078125 C 212.65625 138.914062 212.265625 139.734375 211.839844 140.535156 C 211.414062 141.335938 210.945312 142.113281 210.441406 142.867188 C 209.9375 143.625 209.398438 144.351562 208.824219 145.054688 C 208.246094 145.753906 207.640625 146.425781 206.996094 147.070312 C 206.355469 147.710938 205.683594 148.320312 204.984375 148.894531 C 204.28125 149.472656 203.554688 150.011719 202.800781 150.515625 C 202.046875 151.019531 201.269531 151.488281 200.46875 151.914062 C 199.667969 152.34375 198.851562 152.730469 198.011719 153.078125 C 197.171875 153.425781 196.320312 153.730469 195.453125 153.992188 C 194.585938 154.257812 193.707031 154.476562 192.816406 154.65625 C 191.925781 154.832031 191.03125 154.964844 190.125 155.054688 C 189.222656 155.140625 188.320312 155.1875 187.410156 155.1875 C 186.503906 155.1875 185.601562 155.140625 184.695312 155.054688 C 183.792969 154.964844 182.898438 154.832031 182.007812 154.65625 C 181.117188 154.476562 180.238281 154.257812 179.371094 153.992188 C 178.503906 153.730469 177.648438 153.425781 176.8125 153.078125 C 175.972656 152.730469 175.15625 152.34375 174.355469 151.914062 C 173.554688 151.488281 172.777344 151.019531 172.023438 150.515625 C 171.269531 150.011719 170.542969 149.472656 169.839844 148.894531 C 169.140625 148.320312 168.46875 147.710938 167.824219 147.070312 C 167.183594 146.425781 166.578125 145.753906 166 145.054688 C 165.425781 144.351562 164.886719 143.625 164.382812 142.867188 C 163.878906 142.113281 163.410156 141.335938 162.984375 140.535156 C 162.554688 139.734375 162.167969 138.914062 161.820312 138.078125 C 161.476562 137.238281 161.167969 136.386719 160.90625 135.515625 C 160.644531 134.648438 160.421875 133.769531 160.246094 132.878906 C 160.070312 131.988281 159.9375 131.089844 159.847656 130.1875 C 159.757812 129.285156 159.714844 128.378906 159.714844 127.472656 C 159.714844 126.5625 159.757812 125.65625 159.847656 124.753906 C 159.9375 123.851562 160.070312 122.953125 160.246094 122.0625 C 160.421875 121.171875 160.644531 120.292969 160.90625 119.425781 C 161.167969 118.554688 161.476562 117.703125 161.820312 116.863281 C 162.167969 116.027344 162.554688 115.207031 162.984375 114.40625 C 163.410156 113.605469 163.878906 112.828125 164.382812 112.074219 C 164.886719 111.316406 165.425781 110.589844 166 109.886719 C 166.578125 109.1875 167.183594 108.515625 167.824219 107.871094 C 168.46875 107.230469 169.140625 106.621094 169.839844 106.046875 C 170.542969 105.46875 171.269531 104.929688 172.023438 104.425781 C 172.777344 103.921875 173.554688 103.457031 174.355469 103.027344 C 175.15625 102.597656 175.972656 102.210938 176.8125 101.863281 C 177.648438 101.515625 178.503906 101.210938 179.371094 100.949219 C 180.238281 100.683594 181.117188 100.464844 182.007812 100.289062 C 182.898438 100.109375 183.792969 99.976562 184.695312 99.886719 C 185.601562 99.800781 186.503906 99.753906 187.410156 99.753906 C 188.320312 99.753906 189.222656 99.800781 190.125 99.886719 C 191.03125 99.976562 191.925781 100.109375 192.816406 100.289062 C 193.707031 100.464844 194.585938 100.683594 195.453125 100.949219 C 196.320312 101.210938 197.171875 101.515625 198.011719 101.863281 C 198.851562 102.210938 199.667969 102.597656 200.46875 103.027344 C 201.269531 103.457031 202.046875 103.921875 202.800781 104.425781 C 203.554688 104.929688 204.28125 105.46875 204.984375 106.046875 C 205.683594 106.621094 206.355469 107.230469 206.996094 107.871094 C 207.640625 108.515625 208.246094 109.1875 208.824219 109.886719 C 209.398438 110.589844 209.9375 111.316406 210.441406 112.074219 C 210.945312 112.828125 211.414062 113.605469 211.839844 114.40625 C 212.265625 115.207031 212.65625 116.027344 213.003906 116.863281 C 213.347656 117.703125 213.65625 118.554688 213.917969 119.425781 C 214.179688 120.292969 214.402344 121.171875 214.578125 122.0625 C 214.753906 122.953125 214.886719 123.851562 214.976562 124.753906 C 215.066406 125.65625 215.109375 126.5625 215.109375 127.472656 Z M 215.109375 127.472656 " fill-opacity="1" fill-rule="nonzero"/><path fill="#ffffff" d="M 188.917969 112.105469 L 192.46875 119.277344 C 192.710938 119.757812 193.191406 120.121094 193.734375 120.179688 L 201.621094 121.324219 C 203.007812 121.503906 203.550781 123.253906 202.585938 124.21875 L 196.867188 129.761719 C 196.445312 130.121094 196.261719 130.722656 196.382812 131.265625 L 197.707031 139.097656 C 197.949219 140.484375 196.503906 141.507812 195.238281 140.90625 L 188.195312 137.171875 C 187.714844 136.929688 187.109375 136.929688 186.628906 137.171875 L 179.585938 140.90625 C 178.320312 141.570312 176.875 140.484375 177.117188 139.097656 L 178.441406 131.265625 C 178.558594 130.722656 178.378906 130.183594 177.957031 129.761719 L 172.238281 124.21875 C 171.214844 123.253906 171.816406 121.566406 173.203125 121.324219 L 181.089844 120.179688 C 181.632812 120.121094 182.113281 119.757812 182.355469 119.277344 L 185.90625 112.105469 C 186.507812 110.839844 188.253906 110.839844 188.917969 112.105469 Z M 188.917969 112.105469 " fill-opacity="1" fill-rule="nonzero"/><path fill="#fed201" d="M 275.746094 76.4375 C 275.746094 70.59375 270.988281 65.832031 265.148438 65.832031 C 270.988281 65.832031 275.746094 61.074219 275.746094 55.226562 C 275.746094 61.074219 280.503906 65.832031 286.34375 65.832031 C 280.503906 65.773438 275.746094 70.53125 275.746094 76.4375 Z M 275.746094 76.4375 " fill-opacity="1" fill-rule="nonzero"/><path fill="#fed201" d="M 128.824219 203.628906 C 128.824219 197.785156 124.066406 193.027344 118.226562 193.027344 C 124.066406 193.027344 128.824219 188.265625 128.824219 182.421875 C 128.824219 188.265625 133.582031 193.027344 139.421875 193.027344 C 133.582031 193.027344 128.824219 197.785156 128.824219 203.628906 Z M 128.824219 203.628906 " fill-opacity="1" fill-rule="nonzero"/><g clip-path="url(#6a8b594fb7)"><path fill="#fed201" d="M 182.835938 40.347656 C 182.835938 34.5 178.078125 29.742188 172.238281 29.742188 C 178.078125 29.742188 182.835938 24.980469 182.835938 19.136719 C 182.835938 24.980469 187.59375 29.742188 193.433594 29.742188 C 187.59375 29.679688 182.835938 34.441406 182.835938 40.347656 Z M 182.835938 40.347656 " fill-opacity="1" fill-rule="nonzero"/></g><path fill="#fed201" d="M 106.605469 63.484375 C 106.605469 59.988281 103.773438 57.214844 100.34375 57.214844 C 103.835938 57.214844 106.605469 54.382812 106.605469 50.949219 C 106.605469 54.445312 109.433594 57.214844 112.867188 57.214844 C 109.433594 57.214844 106.605469 60.046875 106.605469 63.484375 Z M 106.605469 63.484375 " fill-opacity="1" fill-rule="nonzero"/><path fill="#fed201" d="M 200.117188 56.011719 C 200.117188 52.515625 197.285156 49.746094 193.855469 49.746094 C 197.347656 49.746094 200.117188 46.914062 200.117188 43.480469 C 200.117188 46.972656 202.945312 49.746094 206.378906 49.746094 C 202.886719 49.683594 200.117188 52.515625 200.117188 56.011719 Z M 200.117188 56.011719 " fill-opacity="1" fill-rule="nonzero"/><path fill="#fed201" d="M 239.558594 184.953125 C 239.558594 181.457031 236.726562 178.683594 233.296875 178.683594 C 236.789062 178.683594 239.558594 175.855469 239.558594 172.417969 C 239.558594 175.914062 242.386719 178.683594 245.820312 178.683594 C 242.386719 178.683594 239.558594 181.515625 239.558594 184.953125 Z M 239.558594 184.953125 " fill-opacity="1" fill-rule="nonzero"/><path fill="#4d4d4d" d="M 138.820312 257.976562 L 236.003906 257.976562 L 236.003906 307.867188 L 138.820312 307.867188 Z M 138.820312 257.976562 " fill-opacity="1" fill-rule="nonzero"/><path fill="#ffb401" d="M 216.554688 296.117188 L 158.148438 296.117188 C 155.738281 296.117188 153.8125 294.1875 153.8125 291.777344 L 153.8125 274.125 C 153.8125 271.714844 155.738281 269.789062 158.148438 269.789062 L 216.554688 269.789062 C 218.964844 269.789062 220.890625 271.714844 220.890625 274.125 L 220.890625 291.777344 C 220.953125 294.1875 218.964844 296.117188 216.554688 296.117188 Z M 216.554688 296.117188 " fill-opacity="1" fill-rule="nonzero"/><path fill="#fec701" d="M 155.316406 291.71875 L 155.316406 274.066406 C 155.316406 272.5 156.582031 271.234375 158.148438 271.234375 L 216.554688 271.234375 C 218.121094 271.234375 219.386719 272.5 219.386719 274.066406 L 219.386719 291.71875 C 219.386719 293.285156 218.121094 294.550781 216.554688 294.550781 L 158.148438 294.550781 C 156.582031 294.609375 155.316406 293.285156 155.316406 291.71875 Z M 155.316406 291.71875 " fill-opacity="1" fill-rule="nonzero"/><path fill="#333333" d="M 138.820312 259.242188 L 236.003906 259.242188 L 236.003906 266.894531 L 138.820312 266.894531 Z M 138.820312 259.242188 " fill-opacity="1" fill-rule="nonzero"/><path fill="#fed201" d="M 163.328125 271.234375 L 177.957031 271.234375 L 177.957031 294.609375 L 163.328125 294.609375 Z M 163.328125 271.234375 " fill-opacity="1" fill-rule="nonzero"/><path fill="#666666" d="M 240.640625 256.894531 L 240.640625 261.351562 C 240.640625 262.253906 239.917969 262.917969 239.074219 262.917969 L 135.75 262.917969 C 134.84375 262.917969 134.183594 262.195312 134.183594 261.351562 L 134.183594 256.894531 C 134.183594 255.988281 134.90625 255.328125 135.75 255.328125 L 239.015625 255.328125 C 239.917969 255.265625 240.640625 255.988281 240.640625 256.894531 Z M 240.640625 256.894531 " fill-opacity="1" fill-rule="nonzero"/><g clip-path="url(#c1fa4481d5)"><path fill="#1a1a1a" d="M 128.945312 308.890625 L 128.945312 317.867188 C 128.945312 319.253906 130.089844 320.398438 131.472656 320.398438 L 243.351562 320.398438 C 244.734375 320.398438 245.878906 319.253906 245.878906 317.867188 L 245.878906 308.890625 Z M 128.945312 308.890625 " fill-opacity="1" fill-rule="nonzero"/></g><path fill="#333333" d="M 132.617188 304.671875 L 128.945312 308.890625 L 245.820312 308.890625 L 242.148438 304.671875 C 241.183594 303.527344 239.738281 302.925781 238.234375 302.925781 L 136.53125 302.925781 C 135.027344 302.925781 133.582031 303.589844 132.617188 304.671875 Z M 132.617188 304.671875 " fill-opacity="1" fill-rule="nonzero"/><path fill="#333333" d="M 217.941406 274.425781 C 217.941406 274.609375 217.90625 274.785156 217.835938 274.957031 C 217.765625 275.125 217.664062 275.277344 217.535156 275.40625 C 217.40625 275.535156 217.253906 275.636719 217.085938 275.707031 C 216.914062 275.777344 216.738281 275.8125 216.554688 275.8125 C 216.371094 275.8125 216.195312 275.777344 216.027344 275.707031 C 215.855469 275.636719 215.707031 275.535156 215.578125 275.40625 C 215.445312 275.277344 215.347656 275.125 215.277344 274.957031 C 215.207031 274.785156 215.171875 274.609375 215.171875 274.425781 C 215.171875 274.242188 215.207031 274.066406 215.277344 273.894531 C 215.347656 273.726562 215.445312 273.578125 215.578125 273.445312 C 215.707031 273.316406 215.855469 273.214844 216.027344 273.144531 C 216.195312 273.074219 216.371094 273.039062 216.554688 273.039062 C 216.738281 273.039062 216.914062 273.074219 217.085938 273.144531 C 217.253906 273.214844 217.40625 273.316406 217.535156 273.445312 C 217.664062 273.578125 217.765625 273.726562 217.835938 273.894531 C 217.90625 274.066406 217.941406 274.242188 217.941406 274.425781 Z M 217.941406 274.425781 " fill-opacity="1" fill-rule="nonzero"/><path fill="#666666" d="M 215.820312 273.859375 L 215.988281 273.691406 L 217.265625 274.96875 L 217.097656 275.140625 Z M 215.820312 273.859375 " fill-opacity="1" fill-rule="nonzero"/><path fill="#666666" d="M 215.820312 274.96875 L 217.097656 273.691406 L 217.265625 273.859375 L 215.988281 275.140625 Z M 215.820312 274.96875 " fill-opacity="1" fill-rule="nonzero"/><path fill="#333333" d="M 217.941406 291.359375 C 217.941406 291.542969 217.90625 291.71875 217.835938 291.886719 C 217.765625 292.058594 217.664062 292.207031 217.535156 292.335938 C 217.40625 292.46875 217.253906 292.566406 217.085938 292.636719 C 216.914062 292.707031 216.738281 292.742188 216.554688 292.742188 C 216.371094 292.742188 216.195312 292.707031 216.027344 292.636719 C 215.855469 292.566406 215.707031 292.46875 215.578125 292.335938 C 215.445312 292.207031 215.347656 292.058594 215.277344 291.886719 C 215.207031 291.71875 215.171875 291.542969 215.171875 291.359375 C 215.171875 291.171875 215.207031 290.996094 215.277344 290.828125 C 215.347656 290.65625 215.445312 290.507812 215.578125 290.378906 C 215.707031 290.246094 215.855469 290.148438 216.027344 290.078125 C 216.195312 290.007812 216.371094 289.972656 216.554688 289.972656 C 216.738281 289.972656 216.914062 290.007812 217.085938 290.078125 C 217.253906 290.148438 217.40625 290.246094 217.535156 290.378906 C 217.664062 290.507812 217.765625 290.65625 217.835938 290.828125 C 217.90625 290.996094 217.941406 291.171875 217.941406 291.359375 Z M 217.941406 291.359375 " fill-opacity="1" fill-rule="nonzero"/><path fill="#666666" d="M 215.8125 290.796875 L 215.980469 290.625 L 217.257812 291.902344 L 217.089844 292.074219 Z M 215.8125 290.796875 " fill-opacity="1" fill-rule="nonzero"/><path fill="#666666" d="M 215.8125 291.902344 L 217.089844 290.625 L 217.257812 290.796875 L 215.980469 292.074219 Z M 215.8125 291.902344 " fill-opacity="1" fill-rule="nonzero"/><path fill="#333333" d="M 159.59375 274.425781 C 159.59375 274.609375 159.558594 274.785156 159.488281 274.957031 C 159.417969 275.125 159.316406 275.277344 159.1875 275.40625 C 159.058594 275.535156 158.90625 275.636719 158.738281 275.707031 C 158.570312 275.777344 158.390625 275.8125 158.207031 275.8125 C 158.023438 275.8125 157.847656 275.777344 157.679688 275.707031 C 157.507812 275.636719 157.359375 275.535156 157.230469 275.40625 C 157.097656 275.277344 157 275.125 156.929688 274.957031 C 156.859375 274.785156 156.824219 274.609375 156.824219 274.425781 C 156.824219 274.242188 156.859375 274.066406 156.929688 273.894531 C 157 273.726562 157.097656 273.578125 157.230469 273.445312 C 157.359375 273.316406 157.507812 273.214844 157.679688 273.144531 C 157.847656 273.074219 158.023438 273.039062 158.207031 273.039062 C 158.390625 273.039062 158.570312 273.074219 158.738281 273.144531 C 158.90625 273.214844 159.058594 273.316406 159.1875 273.445312 C 159.316406 273.578125 159.417969 273.726562 159.488281 273.894531 C 159.558594 274.066406 159.59375 274.242188 159.59375 274.425781 Z M 159.59375 274.425781 " fill-opacity="1" fill-rule="nonzero"/><path fill="#666666" d="M 157.484375 273.890625 L 157.65625 273.71875 L 158.933594 274.996094 L 158.761719 275.167969 Z M 157.484375 273.890625 " fill-opacity="1" fill-rule="nonzero"/><path fill="#666666" d="M 157.484375 274.996094 L 158.761719 273.71875 L 158.933594 273.890625 L 157.65625 275.167969 Z M 157.484375 274.996094 " fill-opacity="1" fill-rule="nonzero"/><path fill="#333333" d="M 159.59375 291.359375 C 159.59375 291.542969 159.558594 291.71875 159.488281 291.886719 C 159.417969 292.058594 159.316406 292.207031 159.1875 292.335938 C 159.058594 292.46875 158.90625 292.566406 158.738281 292.636719 C 158.570312 292.707031 158.390625 292.742188 158.207031 292.742188 C 158.023438 292.742188 157.847656 292.707031 157.679688 292.636719 C 157.507812 292.566406 157.359375 292.46875 157.230469 292.335938 C 157.097656 292.207031 157 292.058594 156.929688 291.886719 C 156.859375 291.71875 156.824219 291.542969 156.824219 291.359375 C 156.824219 291.171875 156.859375 290.996094 156.929688 290.828125 C 157 290.65625 157.097656 290.507812 157.230469 290.378906 C 157.359375 290.246094 157.507812 290.148438 157.679688 290.078125 C 157.847656 290.007812 158.023438 289.972656 158.207031 289.972656 C 158.390625 289.972656 158.570312 290.007812 158.738281 290.078125 C 158.90625 290.148438 159.058594 290.246094 159.1875 290.378906 C 159.316406 290.507812 159.417969 290.65625 159.488281 290.828125 C 159.558594 290.996094 159.59375 291.171875 159.59375 291.359375 Z M 159.59375 291.359375 " fill-opacity="1" fill-rule="nonzero"/><path fill="#666666" d="M 157.476562 290.824219 L 157.648438 290.652344 L 158.925781 291.929688 L 158.753906 292.101562 Z M 157.476562 290.824219 " fill-opacity="1" fill-rule="nonzero"/><path fill="#666666" d="M 157.476562 291.929688 L 158.753906 290.652344 L 158.925781 290.824219 L 157.648438 292.101562 Z M 157.476562 291.929688 " fill-opacity="1" fill-rule="nonzero"/></svg>