<svg xmlns="http://www.w3.org/2000/svg" xmlns:xlink="http://www.w3.org/1999/xlink" width="500" zoomAndPan="magnify" viewBox="0 0 375 374.999991" height="500" preserveAspectRatio="xMidYMid meet" version="1.0"><defs><clipPath id="291823f0df"><path d="M 35.25 190.007812 L 188 190.007812 L 188 350.507812 L 35.25 350.507812 Z M 35.25 190.007812 " clip-rule="nonzero"/></clipPath><clipPath id="1105e20105"><path d="M 37.5 37.5 L 187.5 37.5 L 187.5 187.5 L 37.5 187.5 Z M 37.5 37.5 " clip-rule="nonzero"/></clipPath><clipPath id="be10c05e86"><path d="M 99.976562 65 L 296.476562 65 L 296.476562 318.535156 L 99.976562 318.535156 Z M 99.976562 65 " clip-rule="nonzero"/></clipPath><clipPath id="6aa51b2e12"><path d="M 166 43.285156 L 234 43.285156 L 234 74 L 166 74 Z M 166 43.285156 " clip-rule="nonzero"/></clipPath><clipPath id="3bd50a1351"><path d="M 141 261 L 328 261 L 328 356.851562 L 141 356.851562 Z M 141 261 " clip-rule="nonzero"/></clipPath></defs><g clip-path="url(#291823f0df)"><path fill="#6366f1" d="M 115.53125 190.007812 C 138.464844 190.007812 155.136719 204.625 168.402344 223.105469 C 178.242188 236.808594 187.878906 251.410156 187.878906 270.261719 C 187.878906 314.554688 155.464844 350.535156 115.53125 350.535156 C 75.597656 350.535156 35.382812 312.050781 35.382812 267.757812 C 35.382812 223.464844 75.597656 190.007812 115.53125 190.007812 Z M 115.53125 190.007812 " fill-opacity="1" fill-rule="evenodd"/></g><g clip-path="url(#1105e20105)"><path fill="#d9d9d9" d="M 186.765625 88.480469 C 186.96875 88.480469 187.140625 88.410156 187.285156 88.265625 C 187.429688 88.121094 187.5 87.949219 187.5 87.746094 C 187.5 87.542969 187.429688 87.371094 187.285156 87.226562 C 187.140625 87.082031 186.96875 87.011719 186.765625 87.011719 L 162.746094 87.011719 L 162.746094 63.722656 L 186.765625 63.722656 C 186.96875 63.722656 187.140625 63.652344 187.285156 63.507812 C 187.429688 63.367188 187.5 63.191406 187.5 62.988281 C 187.5 62.785156 187.429688 62.613281 187.285156 62.46875 C 187.140625 62.324219 186.96875 62.253906 186.765625 62.253906 L 162.746094 62.253906 L 162.746094 38.234375 C 162.746094 38.03125 162.675781 37.859375 162.53125 37.714844 C 162.386719 37.570312 162.214844 37.5 162.011719 37.5 C 161.808594 37.5 161.632812 37.570312 161.492188 37.714844 C 161.347656 37.859375 161.277344 38.03125 161.277344 38.234375 L 161.277344 62.253906 L 137.988281 62.253906 L 137.988281 38.234375 C 137.988281 38.03125 137.917969 37.859375 137.773438 37.714844 C 137.628906 37.570312 137.457031 37.5 137.253906 37.5 C 137.050781 37.5 136.878906 37.570312 136.734375 37.714844 C 136.589844 37.859375 136.519531 38.03125 136.519531 38.234375 L 136.519531 62.253906 L 113.234375 62.253906 L 113.234375 38.234375 C 113.234375 38.03125 113.164062 37.859375 113.019531 37.714844 C 112.875 37.570312 112.703125 37.5 112.5 37.5 C 112.296875 37.5 112.125 37.570312 111.980469 37.714844 C 111.835938 37.859375 111.765625 38.03125 111.765625 38.234375 L 111.765625 62.253906 L 88.480469 62.253906 L 88.480469 38.234375 C 88.480469 38.03125 88.410156 37.859375 88.265625 37.714844 C 88.121094 37.570312 87.949219 37.5 87.746094 37.5 C 87.542969 37.5 87.371094 37.570312 87.226562 37.714844 C 87.082031 37.859375 87.011719 38.03125 87.011719 38.234375 L 87.011719 62.253906 L 63.722656 62.253906 L 63.722656 38.234375 C 63.722656 38.03125 63.652344 37.859375 63.507812 37.714844 C 63.367188 37.570312 63.191406 37.5 62.988281 37.5 C 62.785156 37.5 62.613281 37.570312 62.46875 37.714844 C 62.324219 37.859375 62.253906 38.03125 62.253906 38.234375 L 62.253906 62.253906 L 38.234375 62.253906 C 38.03125 62.253906 37.859375 62.324219 37.714844 62.46875 C 37.570312 62.613281 37.5 62.785156 37.5 62.988281 C 37.5 63.191406 37.570312 63.367188 37.714844 63.507812 C 37.859375 63.652344 38.03125 63.722656 38.234375 63.722656 L 62.253906 63.722656 L 62.253906 87.011719 L 38.234375 87.011719 C 38.03125 87.011719 37.859375 87.082031 37.714844 87.226562 C 37.570312 87.371094 37.5 87.542969 37.5 87.746094 C 37.5 87.949219 37.570312 88.121094 37.714844 88.265625 C 37.859375 88.410156 38.03125 88.480469 38.234375 88.480469 L 62.253906 88.480469 L 62.253906 111.765625 L 38.234375 111.765625 C 38.03125 111.765625 37.859375 111.835938 37.714844 111.980469 C 37.570312 112.125 37.5 112.296875 37.5 112.5 C 37.5 112.703125 37.570312 112.875 37.714844 113.019531 C 37.859375 113.164062 38.03125 113.234375 38.234375 113.234375 L 62.253906 113.234375 L 62.253906 136.519531 L 38.234375 136.519531 C 38.03125 136.519531 37.859375 136.589844 37.714844 136.734375 C 37.570312 136.878906 37.5 137.050781 37.5 137.253906 C 37.5 137.457031 37.570312 137.628906 37.714844 137.773438 C 37.859375 137.917969 38.03125 137.988281 38.234375 137.988281 L 62.253906 137.988281 L 62.253906 161.277344 L 38.234375 161.277344 C 38.03125 161.277344 37.859375 161.347656 37.714844 161.492188 C 37.570312 161.632812 37.5 161.808594 37.5 162.011719 C 37.5 162.214844 37.570312 162.386719 37.714844 162.53125 C 37.859375 162.675781 38.03125 162.746094 38.234375 162.746094 L 62.253906 162.746094 L 62.253906 186.765625 C 62.253906 186.96875 62.324219 187.140625 62.46875 187.285156 C 62.613281 187.429688 62.785156 187.5 62.988281 187.5 C 63.191406 187.5 63.367188 187.429688 63.507812 187.285156 C 63.652344 187.140625 63.722656 186.96875 63.722656 186.765625 L 63.722656 162.746094 L 87.011719 162.746094 L 87.011719 186.765625 C 87.011719 186.96875 87.082031 187.140625 87.226562 187.285156 C 87.371094 187.429688 87.542969 187.5 87.746094 187.5 C 87.949219 187.5 88.121094 187.429688 88.265625 187.285156 C 88.410156 187.140625 88.480469 186.96875 88.480469 186.765625 L 88.480469 162.746094 L 111.765625 162.746094 L 111.765625 186.765625 C 111.765625 186.96875 111.835938 187.140625 111.980469 187.285156 C 112.125 187.429688 112.296875 187.5 112.5 187.5 C 112.703125 187.5 112.875 187.429688 113.019531 187.285156 C 113.164062 187.140625 113.234375 186.96875 113.234375 186.765625 L 113.234375 162.746094 L 136.519531 162.746094 L 136.519531 186.765625 C 136.519531 186.96875 136.589844 187.140625 136.734375 187.285156 C 136.878906 187.429688 137.050781 187.5 137.253906 187.5 C 137.457031 187.5 137.628906 187.429688 137.773438 187.285156 C 137.917969 187.140625 137.988281 186.96875 137.988281 186.765625 L 137.988281 162.746094 L 161.277344 162.746094 L 161.277344 186.765625 C 161.277344 186.96875 161.347656 187.140625 161.492188 187.285156 C 161.632812 187.429688 161.808594 187.5 162.011719 187.5 C 162.214844 187.5 162.386719 187.429688 162.53125 187.285156 C 162.675781 187.140625 162.746094 186.96875 162.746094 186.765625 L 162.746094 162.746094 L 186.765625 162.746094 C 186.96875 162.746094 187.140625 162.675781 187.285156 162.53125 C 187.429688 162.386719 187.5 162.214844 187.5 162.011719 C 187.5 161.808594 187.429688 161.632812 187.285156 161.492188 C 187.140625 161.347656 186.96875 161.277344 186.765625 161.277344 L 162.746094 161.277344 L 162.746094 137.988281 L 186.765625 137.988281 C 186.96875 137.988281 187.140625 137.917969 187.285156 137.773438 C 187.429688 137.628906 187.5 137.457031 187.5 137.253906 C 187.5 137.050781 187.429688 136.878906 187.285156 136.734375 C 187.140625 136.589844 186.96875 136.519531 186.765625 136.519531 L 162.746094 136.519531 L 162.746094 113.234375 L 186.765625 113.234375 C 186.96875 113.234375 187.140625 113.164062 187.285156 113.019531 C 187.429688 112.875 187.5 112.703125 187.5 112.5 C 187.5 112.296875 187.429688 112.125 187.285156 111.980469 C 187.140625 111.835938 186.96875 111.765625 186.765625 111.765625 L 162.746094 111.765625 L 162.746094 88.480469 Z M 161.277344 63.722656 L 161.277344 87.011719 L 137.988281 87.011719 L 137.988281 63.722656 Z M 136.519531 63.722656 L 136.519531 87.011719 L 113.234375 87.011719 L 113.234375 63.722656 Z M 111.765625 113.234375 L 111.765625 136.519531 L 88.480469 136.519531 L 88.480469 113.234375 Z M 88.480469 111.765625 L 88.480469 88.480469 L 111.765625 88.480469 L 111.765625 111.765625 Z M 113.234375 113.234375 L 136.519531 113.234375 L 136.519531 136.519531 L 113.234375 136.519531 Z M 113.234375 111.765625 L 113.234375 88.480469 L 136.519531 88.480469 L 136.519531 111.765625 Z M 111.765625 63.722656 L 111.765625 87.011719 L 88.480469 87.011719 L 88.480469 63.722656 Z M 63.722656 63.722656 L 87.011719 63.722656 L 87.011719 87.011719 L 63.722656 87.011719 Z M 63.722656 88.480469 L 87.011719 88.480469 L 87.011719 111.765625 L 63.722656 111.765625 Z M 63.722656 113.234375 L 87.011719 113.234375 L 87.011719 136.519531 L 63.722656 136.519531 Z M 63.722656 161.277344 L 63.722656 137.988281 L 87.011719 137.988281 L 87.011719 161.277344 Z M 88.480469 161.277344 L 88.480469 137.988281 L 111.765625 137.988281 L 111.765625 161.277344 Z M 113.234375 161.277344 L 113.234375 137.988281 L 136.519531 137.988281 L 136.519531 161.277344 Z M 161.277344 161.277344 L 137.988281 161.277344 L 137.988281 137.988281 L 161.277344 137.988281 Z M 161.277344 136.519531 L 137.988281 136.519531 L 137.988281 113.234375 L 161.277344 113.234375 Z M 161.277344 111.765625 L 137.988281 111.765625 L 137.988281 88.480469 L 161.277344 88.480469 Z M 161.277344 111.765625 " fill-opacity="1" fill-rule="nonzero"/></g><g clip-path="url(#be10c05e86)"><path fill="#f6b756" d="M 296.425781 83.492188 C 296.425781 73.730469 288.507812 65.808594 278.746094 65.808594 L 117.644531 65.808594 C 107.882812 65.808594 99.964844 73.730469 99.964844 83.492188 L 99.964844 300.382812 C 99.964844 310.15625 107.882812 318.074219 117.644531 318.074219 L 278.746094 318.074219 C 288.507812 318.074219 296.425781 310.15625 296.425781 300.382812 L 296.425781 83.492188 " fill-opacity="1" fill-rule="nonzero"/></g><path fill="#d4c9d1" d="M 279.210938 284.335938 C 279.210938 290.492188 274.222656 295.476562 268.070312 295.476562 L 128.324219 295.476562 C 122.167969 295.476562 117.171875 290.492188 117.171875 284.335938 L 117.171875 99.550781 C 117.171875 93.394531 122.167969 88.398438 128.324219 88.398438 L 268.070312 88.398438 C 274.222656 88.398438 279.210938 93.394531 279.210938 99.550781 L 279.210938 284.335938 " fill-opacity="1" fill-rule="nonzero"/><path fill="#a6a2a8" d="M 261.179688 151.722656 C 261.179688 152.5 260.554688 153.121094 259.789062 153.121094 L 170.785156 153.121094 C 170.019531 153.121094 169.394531 152.5 169.394531 151.722656 C 169.394531 150.957031 170.019531 150.332031 170.785156 150.332031 L 259.789062 150.332031 C 260.554688 150.332031 261.179688 150.957031 261.179688 151.722656 " fill-opacity="1" fill-rule="nonzero"/><path fill="#a6a2a8" d="M 261.179688 203.722656 C 261.179688 204.5 260.554688 205.125 259.789062 205.125 L 170.785156 205.125 C 170.019531 205.125 169.394531 204.5 169.394531 203.722656 C 169.394531 202.957031 170.019531 202.332031 170.785156 202.332031 L 259.789062 202.332031 C 260.554688 202.332031 261.179688 202.957031 261.179688 203.722656 " fill-opacity="1" fill-rule="nonzero"/><path fill="#a6a2a8" d="M 261.179688 255.726562 C 261.179688 256.5 260.554688 257.117188 259.789062 257.117188 L 170.785156 257.117188 C 170.019531 257.117188 169.394531 256.5 169.394531 255.726562 C 169.394531 254.960938 170.019531 254.335938 170.785156 254.335938 L 259.789062 254.335938 C 260.554688 254.335938 261.179688 254.960938 261.179688 255.726562 " fill-opacity="1" fill-rule="nonzero"/><path fill="#a6a2a8" d="M 139.648438 127.121094 C 137.703125 127.121094 136.109375 128.703125 136.109375 130.65625 L 136.109375 144.871094 C 136.109375 146.816406 137.703125 148.410156 139.648438 148.410156 L 155.171875 148.410156 C 157.113281 148.410156 158.707031 146.816406 158.707031 144.871094 L 158.707031 130.65625 C 158.707031 128.703125 157.113281 127.121094 155.171875 127.121094 Z M 155.171875 153.121094 L 139.648438 153.121094 C 135.105469 153.121094 131.394531 149.414062 131.394531 144.871094 L 131.394531 130.65625 C 131.394531 126.105469 135.105469 122.40625 139.648438 122.40625 L 155.171875 122.40625 C 159.722656 122.40625 163.421875 126.105469 163.421875 130.65625 L 163.421875 144.871094 C 163.421875 149.414062 159.722656 153.121094 155.171875 153.121094 " fill-opacity="1" fill-rule="nonzero"/><path fill="#a6a2a8" d="M 139.648438 176.757812 C 137.703125 176.757812 136.109375 178.347656 136.109375 180.300781 L 136.109375 194.507812 C 136.109375 196.460938 137.703125 198.050781 139.648438 198.050781 L 155.171875 198.050781 C 157.113281 198.050781 158.707031 196.460938 158.707031 194.507812 L 158.707031 180.300781 C 158.707031 178.347656 157.113281 176.757812 155.171875 176.757812 Z M 155.171875 202.765625 L 139.648438 202.765625 C 135.105469 202.765625 131.394531 199.058594 131.394531 194.507812 L 131.394531 180.300781 C 131.394531 175.75 135.105469 172.042969 139.648438 172.042969 L 155.171875 172.042969 C 159.722656 172.042969 163.421875 175.75 163.421875 180.300781 L 163.421875 194.507812 C 163.421875 199.058594 159.722656 202.765625 155.171875 202.765625 " fill-opacity="1" fill-rule="nonzero"/><path fill="#a6a2a8" d="M 139.648438 231.546875 C 137.703125 231.546875 136.109375 233.128906 136.109375 235.085938 L 136.109375 249.296875 C 136.109375 251.242188 137.703125 252.835938 139.648438 252.835938 L 155.171875 252.835938 C 157.113281 252.835938 158.707031 251.242188 158.707031 249.296875 L 158.707031 235.085938 C 158.707031 233.128906 157.113281 231.546875 155.171875 231.546875 Z M 155.171875 257.550781 L 139.648438 257.550781 C 135.105469 257.550781 131.394531 253.84375 131.394531 249.296875 L 131.394531 235.085938 C 131.394531 230.53125 135.105469 226.832031 139.648438 226.832031 L 155.171875 226.832031 C 159.722656 226.832031 163.421875 230.53125 163.421875 235.085938 L 163.421875 249.296875 C 163.421875 253.84375 159.722656 257.550781 155.171875 257.550781 " fill-opacity="1" fill-rule="nonzero"/><path fill="#a6a2a8" d="M 233.859375 80.417969 C 233.859375 84.800781 230.300781 88.359375 225.921875 88.359375 L 174.390625 88.359375 C 170.011719 88.359375 166.472656 84.800781 166.472656 80.417969 L 166.472656 73.40625 C 166.472656 69.027344 170.011719 65.484375 174.390625 65.484375 L 225.921875 65.484375 C 230.300781 65.484375 233.859375 69.027344 233.859375 73.40625 Z M 237.90625 51.648438 L 162.414062 51.648438 C 155.996094 51.648438 150.800781 56.851562 150.800781 63.265625 L 150.800781 90.5625 C 150.800781 96.980469 155.996094 102.179688 162.414062 102.179688 L 237.90625 102.179688 C 244.324219 102.179688 249.523438 96.980469 249.523438 90.5625 L 249.523438 63.265625 C 249.523438 56.851562 244.324219 51.648438 237.90625 51.648438 " fill-opacity="1" fill-rule="nonzero"/><g clip-path="url(#6aa51b2e12)"><path fill="#d4c9d1" d="M 225.921875 43.523438 L 174.390625 43.523438 C 170.011719 43.523438 166.472656 47.070312 166.472656 51.449219 L 166.472656 73.40625 C 166.472656 69.027344 170.011719 65.484375 174.390625 65.484375 L 225.921875 65.484375 C 230.300781 65.484375 233.859375 69.027344 233.859375 73.40625 L 233.859375 51.449219 C 233.859375 47.070312 230.300781 43.523438 225.921875 43.523438 " fill-opacity="1" fill-rule="nonzero"/></g><g clip-path="url(#3bd50a1351)"><path fill="#4f46e5" d="M 145.964844 271.207031 C 150.910156 264.882812 159.039062 261.996094 169.214844 261.578125 C 179.8125 261.140625 190.476562 263.273438 202.113281 265.109375 C 212.03125 266.386719 222.210938 268.21875 228.433594 267.703125 C 229.625 267.8125 230.886719 267.871094 232.246094 267.886719 C 240.175781 267.988281 250.59375 266.816406 261.972656 266.75 C 276.824219 266.320312 290.75 266.667969 302.511719 269.75 C 314.085938 272.785156 322.425781 278.265625 325.6875 286.59375 C 328.902344 294.796875 326.699219 304.71875 319.855469 314.757812 C 313.066406 324.71875 301.1875 335.449219 284.171875 344.085938 C 271.390625 350.9375 253.898438 356.453125 232.109375 356.507812 C 228.398438 356.519531 224.644531 356.367188 220.867188 356.050781 C 195.25 352.710938 176.445312 341.992188 164.308594 330.339844 C 151.804688 318.433594 145.175781 306.25 142.582031 296.285156 C 139.960938 286.207031 141.132812 277.382812 145.964844 271.207031 Z M 145.964844 271.207031 " fill-opacity="1" fill-rule="nonzero"/></g></svg>